<?xml version="1.0" encoding="UTF-8"?>
<svg width="91px" height="99px" viewBox="0 0 91 99" version="1.1" xmlns="http://www.w3.org/2000/svg" xmlns:xlink="http://www.w3.org/1999/xlink">
    <!-- Generator: Sketch 43.1 (39012) - http://www.bohemiancoding.com/sketch -->
    <title>Petals</title>
    <desc>Created with Sketch.</desc>
    <defs></defs>
    <g id="Page-1" stroke="none" stroke-width="1" fill="none" fill-rule="evenodd">
        <g id="Splash-Screen" transform="translate(-326.000000, -446.000000)">
            <g id="HSS-Logo" transform="translate(228.000000, 416.000000)">
                <g id="logo" transform="translate(69.000000, 0.000000)">
                    <g id="Petals" transform="translate(29.000000, 30.000000)">
                        <path d="M84.9853773,83.6696061 C81.5677451,85.9893994 77.8127159,87.8214412 73.8254784,89.1161635 C62.6675642,92.7386099 50.7653921,91.8027617 40.3100574,86.4811162 C30.2754764,81.3736055 22.6681685,72.7348539 18.8932925,62.1569931 C18.7166553,61.659328 18.1986518,61.373815 17.6846177,61.4868306 C17.1705836,61.5998461 16.8192939,62.0737185 16.8669264,62.597159 C17.4980571,69.731019 20.0682276,76.5773833 24.3035512,82.4006593 C37.1821896,100.110397 62.084066,104.050081 79.8112965,91.1841501 C82.2127686,89.4413311 84.4157719,87.434809 86.3587811,85.2220831 C86.7061015,84.82752 86.7061015,84.2366666 86.3567965,83.8421035 C86.0074914,83.4475404 85.4220086,83.3741794 84.9853773,83.6696061" id="Fill-4" fill="#0E5396"></path>
                        <path d="M53.9323583,5.65356984 C76.3116966,12.91829 89.1327791,37.1730176 82.511861,59.7206153 C82.3630094,60.2242286 82.6130801,60.7615482 83.0953592,60.9717175 C83.4446642,61.1243877 83.8376324,61.0728367 84.1293815,60.8587019 C84.240524,60.7793928 84.3377737,60.6762908 84.4112071,60.5513789 C88.0967721,54.4108662 90.0457355,47.3602808 90.0437508,40.1649562 C90.0457355,29.5791644 85.9056769,19.6119842 78.393634,12.105371 C70.8796064,4.59875785 60.9045661,0.464767248 50.3043492,0.464767248 C47.3293023,0.466749977 44.3661636,0.795883042 41.4982899,1.44423553 C40.9882252,1.56121655 40.6389201,2.03905432 40.6885373,2.56249485 C40.7381545,3.08593539 41.1708164,3.49041217 41.6967587,3.50825673 C45.8308631,3.63911687 49.9471054,4.35884761 53.9323583,5.65356984" id="Fill-8" fill="#00FFCA"></path>
                        <path d="M2.79965851,44.2374822 C4.20084801,40.3533154 6.16171945,36.6634562 8.62471687,33.2729891 C11.3675553,29.5038207 14.6442746,26.2224037 18.3655641,23.5199436 C23.9782608,19.4474176 30.3431543,16.8262495 37.2875765,15.7258347 C48.4137357,13.9651711 59.6510374,16.4891855 68.9294523,22.8299538 C69.3005889,23.0837432 69.782868,23.0678813 70.1341577,22.814092 C70.1936984,22.7704719 70.2492696,22.718921 70.3008715,22.6614218 C70.6501765,22.2688414 70.6541459,21.6779881 70.3088103,21.2814422 C65.6011311,15.8804876 59.4902777,11.8515817 52.6391358,9.6289421 C31.8038844,2.86386971 9.33721975,14.2962869 2.56546536,35.1169273 C1.64853965,37.9343857 1.04519459,40.8529632 0.775277062,43.7874026 C0.72565987,44.3108431 1.0749649,44.7886809 1.58899901,44.9036792 C2.10501781,45.0166948 2.6230213,44.729199 2.79965851,44.2374822" id="Fill-10" fill="#F75260"></path>
                        <path d="M20.9188648,84.8568644 C7.08757626,65.8385249 10.9874876,38.6870297 29.6098122,24.3340523 C30.0265966,24.0128501 30.1397238,23.4319104 29.8737756,22.9778654 C29.6078275,22.5238204 29.0441762,22.3394266 28.5618971,22.5456304 C21.9806727,25.3432615 16.2330171,29.9213835 12.0096017,35.7307803 C-0.869036689,53.4405185 3.07453775,78.3178231 20.8017682,91.1837536 C23.2072097,92.9285554 25.7972271,94.4017233 28.5003717,95.5636026 C28.8496768,95.7123073 29.2366909,95.6587736 29.52844,95.4486043 C29.6415672,95.3653297 29.7388169,95.260245 29.814235,95.1333504 C30.0821678,94.6793054 29.9690406,94.0983657 29.5542409,93.7771635 C26.287445,91.2452182 23.3818622,88.243366 20.9188648,84.8568644" id="Fill-12" fill="#FBCC62"></path>
                    </g>
                </g>
            </g>
        </g>
    </g>
</svg>